<svg xmlns="http://www.w3.org/2000/svg" width="110" height="110" viewBox="0 0 110 110">
  <g id="services1" transform="translate(-291 -3104)">
    <circle id="Ellipse_7" data-name="Ellipse 7" cx="55" cy="55" r="55" transform="translate(291 3104)" fill="#263b5c" opacity="0.07"/>
    <g id="meat" transform="translate(315 3135)">
      <g id="Group_21" data-name="Group 21" transform="translate(0 0)">
        <g id="Group_20" data-name="Group 20">
          <path id="Path_23" data-name="Path 23" d="M56.073,64.379A32.776,32.776,0,0,0,44.35,58.96c-9.587-2.633-20.4-2.917-24.6-2.917A19.772,19.772,0,0,0,0,75.793v8.368a19.772,19.772,0,0,0,19.75,19.75c5.022,0,8.793-1.573,12.786-3.238,4.129-1.722,8.4-3.5,14.4-3.5A14.362,14.362,0,0,0,61.284,82.824V74.456C61.284,70.525,59.531,67.135,56.073,64.379ZM55.066,84.842a1.2,1.2,0,0,0,1.692.051A14.378,14.378,0,0,0,58.89,82.36v.464A11.965,11.965,0,0,1,46.939,94.775c-6.484,0-10.978,1.875-15.325,3.688-3.765,1.571-7.322,3.054-11.864,3.054A17.378,17.378,0,0,1,2.431,85.277,19.766,19.766,0,0,0,19.75,95.543c5.022,0,8.793-1.573,12.786-3.238,4.129-1.722,8.4-3.5,14.4-3.5.446,0,.9-.021,1.34-.062a1.2,1.2,0,1,0-.223-2.383c-.369.034-.745.052-1.116.052-6.484,0-10.978,1.875-15.325,3.688-3.765,1.571-7.322,3.054-11.864,3.054a17.356,17.356,0,1,1,0-34.712c4.106,0,14.66.276,23.966,2.831,10.069,2.765,15.174,7.2,15.174,13.187a12,12,0,0,1-3.774,8.694A1.2,1.2,0,0,0,55.066,84.842Z" transform="translate(0 -56.043)" fill="#fff"/>
        </g>
      </g>
      <g id="Group_23" data-name="Group 23" transform="translate(51.798 28.875)">
        <g id="Group_22" data-name="Group 22">
          <path id="Path_24" data-name="Path 24" d="M435.033,297.968a1.2,1.2,0,0,0-1.593-.573l-.028.014a1.2,1.2,0,1,0,1.621.56Z" transform="translate(-432.75 -297.281)" fill="#fff"/>
        </g>
      </g>
      <g id="Group_25" data-name="Group 25" transform="translate(27.036 5.117)">
        <g id="Group_24" data-name="Group 24">
          <path id="Path_25" data-name="Path 25" d="M227.231,98.8l-.062-.005a1.2,1.2,0,0,0-.19,2.386l.061,0q.049,0,.1,0a1.2,1.2,0,0,0,.094-2.39Z" transform="translate(-225.877 -98.789)" fill="#fff"/>
        </g>
      </g>
      <g id="Group_27" data-name="Group 27" transform="translate(4.788 4.788)">
        <g id="Group_26" data-name="Group 26">
          <path id="Path_26" data-name="Path 26" d="M90.959,106.442c-1.187-2.347-3.829-4.374-7.852-6.027a51.217,51.217,0,0,0-9.228-2.656c-1.446-.284-2.962-.537-4.5-.753a1.2,1.2,0,1,0-.332,2.371c1.5.21,2.972.456,4.376.731,8.222,1.612,13.837,4.315,15.4,7.414a4.639,4.639,0,0,1,.49,2.144,7.172,7.172,0,0,1-7.164,7.164,36.591,36.591,0,0,0-11.857,2c-1.716.578-3.383,1.27-4.994,1.939-1.066.442-2.168.9-3.262,1.314a19.252,19.252,0,0,1-7.075,1.493,12.568,12.568,0,1,1,0-25.136c1.352,0,2.725.026,4.079.076l.69.028a1.2,1.2,0,0,0,.106-2.392l-.707-.029c-1.384-.052-2.787-.078-4.168-.078a14.962,14.962,0,1,0,0,29.924,21.478,21.478,0,0,0,7.924-1.648c1.129-.428,2.248-.892,3.331-1.342,1.574-.653,3.2-1.329,4.841-1.881a34.236,34.236,0,0,1,11.093-1.87,9.568,9.568,0,0,0,9.558-9.557A6.978,6.978,0,0,0,90.959,106.442Z" transform="translate(-39.998 -96.042)" fill="#fff"/>
        </g>
      </g>
      <g id="Group_29" data-name="Group 29" transform="translate(14.828 9.549)">
        <g id="Group_28" data-name="Group 28">
          <path id="Path_27" data-name="Path 27" d="M129.946,135.82a5.53,5.53,0,1,0,6.069,5.5A5.813,5.813,0,0,0,129.946,135.82Zm0,8.612a3.153,3.153,0,1,1,3.675-3.109A3.432,3.432,0,0,1,129.946,144.432Z" transform="translate(-123.877 -135.82)" fill="#fff"/>
        </g>
      </g>
    </g>
  </g>
</svg>
