<svg xmlns="http://www.w3.org/2000/svg" width="110" height="110" viewBox="0 0 110 110">
  <g id="services2" transform="translate(-747 -3104)">
    <circle id="Ellipse_8" data-name="Ellipse 8" cx="55" cy="55" r="55" transform="translate(747 3104)" fill="#263b5c" opacity="0.07"/>
    <g id="medicine" transform="translate(780 3135)">
      <g id="Group_31" data-name="Group 31" transform="translate(9.349 11.779)">
        <g id="Group_30" data-name="Group 30">
          <path id="Path_28" data-name="Path 28" d="M116.631,125.994a.935.935,0,1,0,.935.935A.935.935,0,0,0,116.631,125.994Z" transform="translate(-115.696 -125.994)" fill="#fff"/>
        </g>
      </g>
      <g id="Group_33" data-name="Group 33" transform="translate(10.284 25.522)">
        <g id="Group_32" data-name="Group 32">
          <path id="Path_29" data-name="Path 29" d="M134.11,276.726h-2.8v-2.8a.935.935,0,1,0-1.87,0v2.8h-2.8a.935.935,0,1,0,0,1.87h2.8v2.8a.935.935,0,1,0,1.87,0v-2.8h2.8a.935.935,0,1,0,0-1.87Z" transform="translate(-125.696 -272.986)" fill="#fff"/>
        </g>
      </g>
      <g id="Group_35" data-name="Group 35" transform="translate(0)">
        <g id="Group_34" data-name="Group 34">
          <path id="Path_30" data-name="Path 30" d="M59.631,30.1a7.475,7.475,0,0,0-10.216-2.737l-3.8,2.192V21.44a4.708,4.708,0,0,0-.935-2.8L40.008,12.4V9.749A2.809,2.809,0,0,0,41.878,7.1V2.8a2.808,2.808,0,0,0-2.8-2.8H22.245a2.808,2.808,0,0,0-2.8,2.8v4.3a2.809,2.809,0,0,0,1.87,2.644V12.4l-4.675,6.233a4.707,4.707,0,0,0-.935,2.8V39.545a4.68,4.68,0,0,0,4.674,4.674H35.4a7.471,7.471,0,0,0,10.159,2.644l11.335-6.544A7.484,7.484,0,0,0,59.631,30.1ZM21.31,2.8a.936.936,0,0,1,.935-.935H39.073a.936.936,0,0,1,.935.935v4.3a.936.936,0,0,1-.935.935H22.245a.936.936,0,0,1-.935-.935V2.8ZM18.132,19.757l4.861-6.481a.935.935,0,0,0,.187-.561V9.91H38.138v1.87H29.724a.935.935,0,1,0,0,1.87h8.881l4.58,6.107a2.829,2.829,0,0,1,.542,1.372H17.591A2.828,2.828,0,0,1,18.132,19.757ZM20.375,42.35a2.808,2.808,0,0,1-2.8-2.8V38.6H34.556A7.491,7.491,0,0,0,34.6,42.35H20.375Zm14.914-5.609H17.571V23H43.747v7.64L38.08,33.91A7.423,7.423,0,0,0,35.289,36.741Zm9.335,8.5a5.609,5.609,0,1,1-5.609-9.715l5.074-2.93L49.7,42.314ZM55.959,38.7l-4.641,2.679-5.609-9.715,4.641-2.679A5.609,5.609,0,1,1,55.959,38.7Z" transform="translate(-15.701)" fill="#fff"/>
        </g>
      </g>
    </g>
  </g>
</svg>
